<svg width="95" height="18" viewBox="0 0 95 18" fill="none" xmlns="http://www.w3.org/2000/svg">
<g clip-path="url(#clip0_3195_418902)">
<path fill-rule="evenodd" clip-rule="evenodd" d="M12.5776 8.5218C12.5776 11.4213 10.8536 14.5559 6.30839 14.5559C3.01705 14.5559 0 12.7535 0 8.5218C0 5.03455 2.27259 2.33096 6.7394 2.56605C11.5197 2.84033 12.5776 6.44512 12.5776 8.5218ZM4.07498 6.32757C3.64398 6.95449 3.48725 7.73814 3.48725 8.5218C3.48725 10.285 4.38844 11.8915 6.30839 11.8915C8.18915 11.8915 9.09035 10.4026 9.09035 8.67853C9.09035 7.42468 8.77689 6.4843 8.11078 5.89657C7.4055 5.26965 6.58267 5.23046 6.07329 5.26965C5.13291 5.30883 4.54517 5.62229 4.07498 6.32757Z" fill="white"/>
<path d="M43.4158 3.69692C43.6831 3.41945 43.9055 3.18866 44.433 2.95788C44.9815 2.72278 45.726 2.56605 46.588 2.56605C47.2933 2.56605 48.077 2.6836 48.6647 2.99706C49.8794 3.62398 50.232 4.64273 50.232 6.44512V14.2816H46.7448V7.81651C46.7448 6.79776 46.7056 6.40594 46.588 6.09248C46.3138 5.46556 45.726 5.23046 45.0207 5.23046C43.2183 5.23046 43.2183 6.64103 43.2183 8.09079V14.2816H39.7703V2.84033H43.2575V3.85907C43.3134 3.80318 43.3654 3.74918 43.4158 3.69692Z" fill="white"/>
<path fill-rule="evenodd" clip-rule="evenodd" d="M38.1246 11.3038C38.113 11.3283 38.1005 11.3555 38.0869 11.3851C37.7313 12.1571 36.6262 14.5559 32.2864 14.5559C28.7992 14.5559 26.3698 12.4792 26.3698 8.71771C26.3698 5.97493 27.7804 2.56605 32.404 2.56605C32.4338 2.56605 32.466 2.56591 32.5003 2.56576C33.2776 2.56237 35.1723 2.55409 36.6357 4.05499C38.1638 5.66147 38.2422 7.89488 38.2813 9.1879H29.8571C29.8571 10.5985 30.6799 12.0482 32.5607 12.0482C34.4395 12.0482 35.1062 10.8361 35.5372 10.0524L35.5386 10.0499L38.1246 11.3038ZM34.6613 6.97902C34.5863 6.517 34.4871 5.90552 34.0104 5.46556C33.5794 5.03455 32.9133 4.83864 32.3256 4.83864C31.5028 4.83864 30.915 5.23046 30.5624 5.58311C30.0922 6.09248 29.9746 6.60185 29.8571 7.11122L34.6765 7.07204C34.6715 7.04194 34.6664 7.01062 34.6613 6.97902Z" fill="white"/>
<path d="M86.2016 5.23046H88.4742V2.87951H86.2016V0.450195H82.7535V2.84033H82.205L80.6377 5.19128H82.7535V10.6377C82.7535 11.7348 82.7927 12.5576 83.2629 13.2237C84.0074 14.2816 85.3004 14.36 86.515 14.36C87.142 14.36 87.6121 14.2816 88.3174 14.1641V11.5389L87.1028 11.578C86.1624 11.578 86.1624 10.9903 86.2016 10.285V5.23046Z" fill="white"/>
<path d="M55.3257 0.450195V2.84033H58.8914L57.324 5.19128H55.2866V10.285C55.2474 10.9903 55.2474 11.578 56.1878 11.578L57.4024 11.5389V14.1641L57.2106 14.1945C56.5796 14.295 56.1711 14.36 55.6 14.36C54.4245 14.36 53.0923 14.2816 52.3479 13.2237C51.8777 12.5576 51.8385 11.7348 51.8385 10.6377V0.450195H55.3257Z" fill="white"/>
<path d="M91.6088 5.23046H91.2169V3.19297H90.4333V2.84033H92.3924V3.19297H91.6088V5.23046Z" fill="white"/>
<path d="M94.9393 5.23046H94.5475V3.78071L94.5866 3.31052L94.4691 3.70234L93.9597 5.26965H93.5679L93.0585 3.70234L92.941 3.31052L92.9802 3.78071V5.23046H92.5883V2.87951H93.1761L93.7638 4.76027L94.3515 2.87951H94.9393V5.23046Z" fill="white"/>
<path fill-rule="evenodd" clip-rule="evenodd" d="M69.7037 11.3039L69.0376 12.2834C68.4107 13.1454 67.2744 14.5168 63.9439 14.5168C60.4566 14.5168 58.1449 12.4402 58.1449 8.67863C58.1449 5.93586 59.5554 2.52698 64.179 2.52698C64.2089 2.52698 64.2411 2.52684 64.2754 2.52669C65.0527 2.52329 66.9473 2.51502 68.4107 4.01591C69.9388 5.6224 70.0172 7.8558 70.0564 9.14882H61.6713C61.6321 10.5594 62.3766 12.0091 64.2182 12.0091C65.9954 12.0091 66.583 10.9246 67.006 10.144L67.0067 10.1426C67.0311 10.0976 67.055 10.0536 67.0785 10.0108L69.7037 11.3039ZM66.4755 6.97916C66.4005 6.51714 66.3013 5.90563 65.8246 5.46567C65.3936 5.03466 64.7275 4.83875 64.1398 4.83875C63.317 4.83875 62.7292 5.23057 62.3766 5.58321C61.9064 6.09257 61.7889 6.60192 61.6713 7.11128L66.4907 7.07215C66.4857 7.04208 66.4806 7.01072 66.4755 6.97916Z" fill="white"/>
<path d="M77.1925 8.28793L81.5026 14.2829H77.5451L75.2726 11.1091L73.1959 14.2829H69.2776L73.2742 8.28793L69.3952 2.88074H73.3134L75.155 5.4276L76.8399 2.88074H80.7581L77.1925 8.28793Z" fill="white"/>
<path fill-rule="evenodd" clip-rule="evenodd" d="M20.3778 2.56728C18.693 2.56728 17.6351 3.35093 17.3216 3.8603V2.84156H13.8343V18.0052H17.2824V13.2249C17.5567 13.6951 18.7322 14.518 20.2211 14.518C24.4136 14.518 25.2756 10.8348 25.2756 8.48384C25.2756 4.68314 23.2382 2.56728 20.3778 2.56728ZM17.9093 6.05452C18.3795 5.4276 19.0456 5.19251 19.6725 5.19251C19.8024 5.19251 19.9322 5.2194 20.0843 5.2509C20.1158 5.25743 20.1483 5.26415 20.1819 5.27087C21.5925 5.58433 22.0235 7.07327 22.0235 8.48384C22.0235 10.1687 21.279 11.8927 19.5942 11.8927C19.0064 11.8927 18.4187 11.6184 18.0269 11.1874C17.5959 10.7172 17.204 9.89441 17.204 8.56221C17.204 7.54346 17.4 6.64226 17.9093 6.05452Z" fill="white"/>
</g>
<defs>
<clipPath id="clip0_3195_418902">
<rect width="95" height="18" fill="white"/>
</clipPath>
</defs>
</svg>
